<svg width="263" height="272" viewBox="0 0 263 272" fill="none" xmlns="http://www.w3.org/2000/svg">
<g opacity="0.3">
<path d="M273.06 205.007C188.378 213.612 101.595 165.664 79.0894 98.0975C56.5843 30.5311 106.789 -31.3377 191.472 -39.9431C276.155 -48.5484 362.938 -0.600283 385.443 66.9661C407.948 134.532 357.743 196.401 273.06 205.007Z" stroke="#C3F030"/>
<path d="M292.323 190.297C213.279 198.329 132.265 153.515 111.238 90.3862C90.2105 27.2575 137.044 -30.5487 216.088 -38.581C295.131 -46.6134 376.146 -1.79906 397.173 61.3296C418.2 124.458 371.366 182.264 292.323 190.297Z" stroke="#C3F030"/>
<path d="M304.988 174.488C231.583 181.948 156.337 140.267 136.788 81.5761C117.239 22.8849 160.701 -30.8584 234.106 -38.3178C307.511 -45.7771 382.756 -4.09669 402.305 54.5945C421.854 113.286 378.392 167.029 304.988 174.488Z" stroke="#C3F030"/>
</g>
</svg>
