<svg width="24" height="21" viewBox="0 0 24 21" fill="none" xmlns="http://www.w3.org/2000/svg">
<path fill-rule="evenodd" clip-rule="evenodd" d="M22.2723 0.818076C22.3728 0.416232 22.78 0.171921 23.1819 0.272392C23.5837 0.372862 23.828 0.780069 23.7275 1.18191L22.6757 5.38889L21.6969 9.47287C21.2807 11.2094 20.9531 12.5764 20.5644 13.6382C20.1656 14.7275 19.6766 15.5731 18.892 16.2216C18.8243 16.2775 18.7553 16.3319 18.6851 16.3847C17.8717 16.9966 16.9354 17.275 15.7832 17.4089C14.6599 17.5395 13.2544 17.5395 11.4687 17.5395H10.8751C9.3301 17.5395 8.11385 17.5395 7.13404 17.4404C6.13045 17.3389 5.30467 17.1283 4.56156 16.663C4.20907 16.4423 3.88157 16.184 3.5848 15.8927C2.886 15.2067 2.47139 14.3453 2.11448 13.2283C1.85197 12.4067 1.60741 11.4015 1.31318 10.1749L1.24007 9.87C1.02293 8.96408 0.843962 8.21742 0.774818 7.61253C0.703058 6.98474 0.732342 6.38698 1.04572 5.84119C1.17976 5.60775 1.34734 5.39526 1.54311 5.21051C2.00082 4.77855 2.5753 4.61076 3.20253 4.53422C3.80688 4.46048 4.57467 4.4605 5.50628 4.46052L21.3616 4.46052L22.2723 0.818076ZM20.2493 9.07694L20.9962 5.96052H5.55494C4.56244 5.96052 3.88689 5.96184 3.38421 6.02318C2.89391 6.08301 2.69289 6.18793 2.57263 6.30143C2.48364 6.3854 2.40747 6.48199 2.34654 6.5881C2.2642 6.7315 2.20902 6.95144 2.26511 7.44218C2.31608 7.88807 2.44453 8.45499 2.6341 9.24999L9.99984 9.24999C10.4141 9.24999 10.7498 9.58578 10.7498 9.99999C10.7498 10.4142 10.4141 10.75 9.99984 10.75L2.99553 10.75C3.13448 11.3166 3.26115 11.8117 3.38622 12.25H6.99984C7.41405 12.25 7.74984 12.5858 7.74984 13C7.74984 13.4142 7.41405 13.75 6.99984 13.75H3.91305C4.12606 14.2127 4.35621 14.548 4.63562 14.8223C4.85497 15.0376 5.09704 15.2285 5.35757 15.3917C5.8317 15.6885 6.40444 15.859 7.28496 15.948C8.18058 16.0386 9.32116 16.0395 10.9162 16.0395H11.4209C13.2647 16.0395 14.5833 16.0383 15.61 15.919C16.6177 15.8019 17.2619 15.5782 17.7835 15.186C17.8354 15.1469 17.8864 15.1067 17.9364 15.0654C18.4394 14.6496 18.807 14.0752 19.1558 13.1226C19.5111 12.152 19.8196 10.87 20.2493 9.07694Z" fill="white"/>
<path d="M13.5262 19.9474C13.5262 20.5287 13.9975 21 14.5788 21C15.1602 21 15.6314 20.5287 15.6314 19.9474C15.6314 19.366 15.1602 18.8947 14.5788 18.8947C13.9975 18.8947 13.5262 19.366 13.5262 19.9474Z" fill="white"/>
<path d="M7.21038 19.9474C7.21038 20.5287 7.68166 21 8.26301 21C8.84437 21 9.31564 20.5287 9.31564 19.9474C9.31564 19.366 8.84437 18.8947 8.26301 18.8947C7.68166 18.8947 7.21038 19.366 7.21038 19.9474Z" fill="white"/>
</svg>
